# xmcd CD database file
#
# Track frame offsets:
#	150
#	20027
#	26544
#	64169
#	68887
#	91762
#	104691
#	122340
#	181113
#	204763
#	246377
#	258787
#	288480
#	302512
#
# Disc length: 4307 seconds
#
# Revision: 0
# Processed by: cddbd v1.5.1PL2 Copyright (c) Steve Scherf et al.
# Submitted via: CDex 1.51
#
DISCID=b910d10e
DTITLE=Lex van Someren - Sounds of Silence
DYEAR=1999
DGENRE=Blues
TTITLE0=Shangaya
TTITLE1=Little Eagle Feather
TTITLE2=Gaia Heeyoo
TTITLE3=Waves of Bliss
TTITLE4=OmManu Padme Hum
TTITLE5=Rainmaker
TTITLE6=Song of Secrets
TTITLE7=Shembee
TTITLE8=Oh, beatiful Feather
TTITLE9=Luna Manjebuh
TTITLE10=Gong
TTITLE11=Earth Call
TTITLE12=Dance of the Swan
TTITLE13=Song of Healing
EXTD=YEAR: 1999
EXTT0=
EXTT1=
EXTT2=
EXTT3=
EXTT4=
EXTT5=
EXTT6=
EXTT7=
EXTT8=
EXTT9=
EXTT10=
EXTT11=
EXTT12=
EXTT13=
PLAYORDER=
